<svg width="20" height="20" viewBox="0 0 20 20" fill="none" xmlns="http://www.w3.org/2000/svg">
<path d="M16.6665 1.66666H3.33317C2.4165 1.66666 1.6665 2.41666 1.6665 3.33332V16.6667C1.6665 17.5833 2.4165 18.3333 3.33317 18.3333H16.6665C17.5832 18.3333 18.3332 17.5833 18.3332 16.6667V3.33332C18.3332 2.41666 17.5832 1.66666 16.6665 1.66666ZM7.49984 15C7.0415 15 6.6665 14.625 6.6665 14.1667C6.6665 13.7083 7.0415 13.3333 7.49984 13.3333C7.95817 13.3333 8.33317 13.7083 8.33317 14.1667C8.33317 14.625 7.95817 15 7.49984 15ZM7.49984 12.5C7.0415 12.5 6.6665 12.125 6.6665 11.6667C6.6665 11.2083 7.0415 10.8333 7.49984 10.8333C7.95817 10.8333 8.33317 11.2083 8.33317 11.6667C8.33317 12.125 7.95817 12.5 7.49984 12.5ZM9.99984 15C9.5415 15 9.1665 14.625 9.1665 14.1667C9.1665 13.7083 9.5415 13.3333 9.99984 13.3333C10.4582 13.3333 10.8332 13.7083 10.8332 14.1667C10.8332 14.625 10.4582 15 9.99984 15ZM9.99984 12.5C9.5415 12.5 9.1665 12.125 9.1665 11.6667C9.1665 11.2083 9.5415 10.8333 9.99984 10.8333C10.4582 10.8333 10.8332 11.2083 10.8332 11.6667C10.8332 12.125 10.4582 12.5 9.99984 12.5ZM12.4998 15C12.0415 15 11.6665 14.625 11.6665 14.1667C11.6665 13.7083 12.0415 13.3333 12.4998 13.3333C12.9582 13.3333 13.3332 13.7083 13.3332 14.1667C13.3332 14.625 12.9582 15 12.4998 15ZM12.4998 12.5C12.0415 12.5 11.6665 12.125 11.6665 11.6667C11.6665 11.2083 12.0415 10.8333 12.4998 10.8333C12.9582 10.8333 13.3332 11.2083 13.3332 11.6667C13.3332 12.125 12.9582 12.5 12.4998 12.5ZM14.1665 9.99999H5.83317V9.16666C5.83317 6.86666 7.69984 4.99999 9.99984 4.99999C12.2998 4.99999 14.1665 6.86666 14.1665 9.16666V9.99999Z" fill="#727272"/>
</svg>
