<svg width="18" height="14" viewBox="0 0 18 14" fill="none" xmlns="http://www.w3.org/2000/svg">
<path d="M0.9 14C0.645 14 0.4314 13.904 0.2592 13.712C0.0864001 13.5207 0 13.2833 0 13V8C0 7.55 0.0825001 7.14167 0.2475 6.775C0.4125 6.40833 0.63 6.08333 0.9 5.8V3C0.9 2.16667 1.1625 1.45833 1.6875 0.875C2.2125 0.291667 2.85 0 3.6 0H7.2C7.545 0 7.8675 0.0709998 8.1675 0.213C8.4675 0.354333 8.745 0.55 9 0.8C9.255 0.55 9.5325 0.354333 9.8325 0.213C10.1325 0.0709998 10.455 0 10.8 0H14.4C15.15 0 15.7875 0.291667 16.3125 0.875C16.8375 1.45833 17.1 2.16667 17.1 3V5.8C17.37 6.08333 17.5875 6.40833 17.7525 6.775C17.9175 7.14167 18 7.55 18 8V13C18 13.2833 17.9136 13.5207 17.7408 13.712C17.5686 13.904 17.355 14 17.1 14C16.845 14 16.6314 13.904 16.4592 13.712C16.2864 13.5207 16.2 13.2833 16.2 13V12H1.8V13C1.8 13.2833 1.7139 13.5207 1.5417 13.712C1.3689 13.904 1.155 14 0.9 14ZM9.9 5H15.3V3C15.3 2.71667 15.2136 2.479 15.0408 2.287C14.8686 2.09567 14.655 2 14.4 2H10.8C10.545 2 10.3314 2.09567 10.1592 2.287C9.9864 2.479 9.9 2.71667 9.9 3V5ZM2.7 5H8.1V3C8.1 2.71667 8.0139 2.479 7.8417 2.287C7.6689 2.09567 7.455 2 7.2 2H3.6C3.345 2 3.1311 2.09567 2.9583 2.287C2.7861 2.479 2.7 2.71667 2.7 3V5Z" fill="#727272"/>
</svg>
