<svg width="34" height="34" viewBox="0 0 34 34" fill="none" xmlns="http://www.w3.org/2000/svg">
<path d="M7.0835 11.3333C4.73183 11.3333 2.8335 13.2316 2.8335 15.5833V26.9166C2.8335 29.2683 4.73183 31.1666 7.0835 31.1666H9.2085C10.7668 31.1666 12.0418 29.8916 12.0418 28.3333V14.1666C12.0418 12.6083 10.7668 11.3333 9.2085 11.3333H7.0835ZM8.50016 24.0833C8.50016 24.6641 8.0185 25.1458 7.43766 25.1458C6.85683 25.1458 6.37516 24.6641 6.37516 24.0833V18.4166C6.37516 17.8358 6.85683 17.3541 7.43766 17.3541C8.0185 17.3541 8.50016 17.8358 8.50016 18.4166V24.0833Z" fill="#757575"/>
<path d="M26.9165 2.83331H18.4165C16.0648 2.83331 14.1665 4.73165 14.1665 7.08331V26.9166C14.1665 29.2683 16.0648 31.1666 18.4165 31.1666H19.1248C19.5215 31.1666 19.8332 30.855 19.8332 30.4583V25.5C19.8332 24.7208 20.4707 24.0833 21.2498 24.0833H24.0832C24.8623 24.0833 25.4998 24.7208 25.4998 25.5V30.4583C25.4998 30.855 25.8115 31.1666 26.2082 31.1666H26.9165C29.2682 31.1666 31.1665 29.2683 31.1665 26.9166V7.08331C31.1665 4.73165 29.2682 2.83331 26.9165 2.83331ZM20.8957 18.4166C20.8957 18.9975 20.414 19.4791 19.8332 19.4791C19.2523 19.4791 18.7707 18.9975 18.7707 18.4166V11.3333C18.7707 10.7525 19.2523 10.2708 19.8332 10.2708C20.414 10.2708 20.8957 10.7525 20.8957 11.3333V18.4166ZM26.5623 18.4166C26.5623 18.9975 26.0807 19.4791 25.4998 19.4791C24.919 19.4791 24.4373 18.9975 24.4373 18.4166V11.3333C24.4373 10.7525 24.919 10.2708 25.4998 10.2708C26.0807 10.2708 26.5623 10.7525 26.5623 11.3333V18.4166Z" fill="#757575"/>
</svg>
