<svg width="34" height="34" viewBox="0 0 34 34" fill="none" xmlns="http://www.w3.org/2000/svg">
<path d="M31.1668 30.0421H29.7502V14.1092C29.7502 13.2326 29.3535 12.4127 28.6593 11.8754L26.9168 10.5182L26.8885 7.05455C26.8885 6.27699 26.251 5.65494 25.4718 5.65494H20.641L18.7427 4.18464C17.7227 3.3788 16.2777 3.3788 15.2577 4.18464L5.341 11.8754C4.64683 12.4127 4.25016 13.2326 4.25016 14.095L4.17933 30.0421H2.8335C2.25266 30.0421 1.771 30.5228 1.771 31.1024C1.771 31.6821 2.25266 32.1628 2.8335 32.1628H31.1668C31.7477 32.1628 32.2293 31.6821 32.2293 31.1024C32.2293 30.5228 31.7477 30.0421 31.1668 30.0421ZM9.2085 18.0253V15.9046C9.2085 15.1271 9.846 14.4909 10.6252 14.4909H13.4585C14.2377 14.4909 14.8752 15.1271 14.8752 15.9046V18.0253C14.8752 18.8028 14.2377 19.439 13.4585 19.439H10.6252C9.846 19.439 9.2085 18.8028 9.2085 18.0253ZM20.5418 30.0421H13.4585V26.1543C13.4585 24.9809 14.4077 24.0337 15.5835 24.0337H18.4168C19.5927 24.0337 20.5418 24.9809 20.5418 26.1543V30.0421ZM24.7918 18.0253C24.7918 18.8028 24.1543 19.439 23.3752 19.439H20.5418C19.7627 19.439 19.1252 18.8028 19.1252 18.0253V15.9046C19.1252 15.1271 19.7627 14.4909 20.5418 14.4909H23.3752C24.1543 14.4909 24.7918 15.1271 24.7918 15.9046V18.0253Z" fill="#757575"/>
</svg>
