<svg width="14" height="14" viewBox="0 0 14 14" fill="none" xmlns="http://www.w3.org/2000/svg">
<path d="M7.00008 1.16669C3.78591 1.16669 1.16675 3.78585 1.16675 7.00002C1.16675 10.2142 3.78591 12.8334 7.00008 12.8334C10.2142 12.8334 12.8334 10.2142 12.8334 7.00002C12.8334 3.78585 10.2142 1.16669 7.00008 1.16669ZM9.78841 5.65835L6.48091 8.96585C6.39925 9.04752 6.28841 9.09419 6.17175 9.09419C6.05508 9.09419 5.94425 9.04752 5.86258 8.96585L4.21175 7.31502C4.04258 7.14585 4.04258 6.86585 4.21175 6.69669C4.38091 6.52752 4.66091 6.52752 4.83008 6.69669L6.17175 8.03835L9.17008 5.04002C9.33925 4.87085 9.61925 4.87085 9.78841 5.04002C9.95758 5.20919 9.95758 5.48335 9.78841 5.65835Z" fill="#26C2E4"/>
</svg>
