<svg width="18" height="18" viewBox="0 0 18 18" fill="none" xmlns="http://www.w3.org/2000/svg">
<path d="M1.5 16.5H16.5" stroke="#26C2E4" stroke-width="1.5" stroke-miterlimit="10" stroke-linecap="round" stroke-linejoin="round"/>
<path d="M2.2124 16.5L2.2499 7.47749C2.2499 7.01999 2.4674 6.58503 2.8274 6.30003L8.0774 2.21252C8.6174 1.79252 9.3749 1.79252 9.9224 2.21252L15.1724 6.29252C15.5399 6.57752 15.7499 7.01249 15.7499 7.47749V16.5" stroke="#26C2E4" stroke-width="1.5" stroke-miterlimit="10" stroke-linejoin="round"/>
<path d="M9.75 12.75H8.25C7.6275 12.75 7.125 13.2525 7.125 13.875V16.5H10.875V13.875C10.875 13.2525 10.3725 12.75 9.75 12.75Z" stroke="#26C2E4" stroke-width="1.5" stroke-miterlimit="10" stroke-linejoin="round"/>
<path d="M7.125 10.3125H5.625C5.2125 10.3125 4.875 9.975 4.875 9.5625V8.4375C4.875 8.025 5.2125 7.6875 5.625 7.6875H7.125C7.5375 7.6875 7.875 8.025 7.875 8.4375V9.5625C7.875 9.975 7.5375 10.3125 7.125 10.3125Z" stroke="#26C2E4" stroke-width="1.5" stroke-miterlimit="10" stroke-linejoin="round"/>
<path d="M12.375 10.3125H10.875C10.4625 10.3125 10.125 9.975 10.125 9.5625V8.4375C10.125 8.025 10.4625 7.6875 10.875 7.6875H12.375C12.7875 7.6875 13.125 8.025 13.125 8.4375V9.5625C13.125 9.975 12.7875 10.3125 12.375 10.3125Z" stroke="#26C2E4" stroke-width="1.5" stroke-miterlimit="10" stroke-linejoin="round"/>
<path d="M14.25 5.25L14.2275 3H10.9275" stroke="#26C2E4" stroke-width="1.5" stroke-miterlimit="10" stroke-linecap="round" stroke-linejoin="round"/>
</svg>
