<svg width="25" height="25" viewBox="0 0 25 25" fill="none"
    xmlns="http://www.w3.org/2000/svg">
    <path d="M23 22.25H22V10.98C22 10.36 21.72 9.77997 21.23 9.39997L20 8.43997L19.98 5.98997C19.98 5.43997 19.53 4.99997 18.98 4.99997H15.57L14.23 3.95997C13.51 3.38997 12.49 3.38997 11.77 3.95997L4.77 9.39997C4.28 9.77997 4 10.36 4 10.97L3.95 22.25H3C2.59 22.25 2.25 22.59 2.25 23C2.25 23.41 2.59 23.75 3 23.75H23C23.41 23.75 23.75 23.41 23.75 23C23.75 22.59 23.41 22.25 23 22.25ZM7.5 13.75V12.25C7.5 11.7 7.95 11.25 8.5 11.25H10.5C11.05 11.25 11.5 11.7 11.5 12.25V13.75C11.5 14.3 11.05 14.75 10.5 14.75H8.5C7.95 14.75 7.5 14.3 7.5 13.75ZM15.5 22.25H10.5V19.5C10.5 18.67 11.17 18 12 18H14C14.83 18 15.5 18.67 15.5 19.5V22.25ZM18.5 13.75C18.5 14.3 18.05 14.75 17.5 14.75H15.5C14.95 14.75 14.5 14.3 14.5 13.75V12.25C14.5 11.7 14.95 11.25 15.5 11.25H17.5C18.05 11.25 18.5 11.7 18.5 12.25V13.75Z" fill="#26C2E4"/>
    <path d="M6.5 3.50001C6.5 5.15686 5.15685 6.50001 3.5 6.50001C1.84315 6.50001 0.5 5.15686 0.5 3.50001C0.5 1.84315 1.84315 0.5 3.5 0.5C5.15685 0.5 6.5 1.84315 6.5 3.50001Z" fill="#26C2E4" stroke="#26C2E4"/>
    <line x1="3.49902" y1="1.99988" x2="3.49902" y2="4.99988" stroke="white"/>
    <line x1="5" y1="3.5" x2="2" y2="3.5" stroke="white"/>
</svg>
