<svg width="28" height="28" viewBox="0 0 28 28" fill="none" xmlns="http://www.w3.org/2000/svg">
<path d="M25.6666 8.66832V15.6683C25.6666 17.4183 25.0832 18.8767 24.0566 19.9033C23.0416 20.9183 21.5833 21.5017 19.8333 21.5017V23.9867C19.8333 24.92 18.7949 25.48 18.0249 24.9667L12.8333 21.5017H10.3599C10.4533 21.1517 10.4999 20.79 10.4999 20.4167C10.4999 19.2267 10.0449 18.13 9.29825 17.3017C8.45825 16.345 7.20992 15.75 5.83325 15.75C4.52659 15.75 3.33659 16.2867 2.48492 17.1617C2.37992 16.695 2.33325 16.1933 2.33325 15.6683V8.66832C2.33325 5.16832 4.66659 2.83499 8.16659 2.83499H19.8333C23.3333 2.83499 25.6666 5.16832 25.6666 8.66832Z" stroke="#26C2E4" stroke-width="1.5" stroke-miterlimit="10" stroke-linecap="round" stroke-linejoin="round"/>
<path d="M10.5001 20.4167C10.5001 21.2917 10.2551 22.12 9.82343 22.82C9.57843 23.24 9.26342 23.6133 8.90175 23.9167C8.08509 24.6517 7.01175 25.0833 5.83341 25.0833C4.13008 25.0833 2.6484 24.1733 1.8434 22.82C1.41173 22.12 1.16675 21.2917 1.16675 20.4167C1.16675 18.9467 1.84341 17.6283 2.91675 16.7767C3.72175 16.135 4.73675 15.75 5.83341 15.75C8.41175 15.75 10.5001 17.8383 10.5001 20.4167Z" stroke="#26C2E4" stroke-width="1.5" stroke-miterlimit="10" stroke-linecap="round" stroke-linejoin="round"/>
<path d="M4.01343 20.4167L5.16842 21.5716L7.65342 19.2733" stroke="#26C2E4" stroke-width="1.5" stroke-linecap="round" stroke-linejoin="round"/>
<path d="M9.91675 12.25H18.0834" stroke="#26C2E4" stroke-width="1.5" stroke-miterlimit="10" stroke-linecap="round" stroke-linejoin="round"/>
</svg>