<svg width="18" height="18" viewBox="0 0 18 18" fill="none" xmlns="http://www.w3.org/2000/svg">
<path d="M9.09004 9.58499C9.03754 9.57749 8.97004 9.57749 8.91004 9.58499C7.59004 9.53999 6.54004 8.45999 6.54004 7.13249C6.54004 5.77499 7.63504 4.67249 9.00004 4.67249C10.3575 4.67249 11.46 5.77499 11.46 7.13249C11.4525 8.45999 10.41 9.53999 9.09004 9.58499Z" stroke="#26C2E4" stroke-width="1.5" stroke-linecap="round" stroke-linejoin="round"/>
<path d="M14.0551 14.535C12.7201 15.7575 10.9501 16.5 9.00007 16.5C7.05007 16.5 5.28007 15.7575 3.94507 14.535C4.02007 13.83 4.47007 13.14 5.27257 12.6C7.32757 11.235 10.6876 11.235 12.7276 12.6C13.5301 13.14 13.9801 13.83 14.0551 14.535Z" stroke="#26C2E4" stroke-width="1.5" stroke-linecap="round" stroke-linejoin="round"/>
<path d="M9 16.5C13.1421 16.5 16.5 13.1421 16.5 9C16.5 4.85786 13.1421 1.5 9 1.5C4.85786 1.5 1.5 4.85786 1.5 9C1.5 13.1421 4.85786 16.5 9 16.5Z" stroke="#26C2E4" stroke-width="1.5" stroke-linecap="round" stroke-linejoin="round"/>
</svg>