<svg width="24" height="25" viewBox="0 0 24 25" fill="none" xmlns="http://www.w3.org/2000/svg">
<path d="M16.19 2.43463H7.81C4.17 2.43463 2 4.58516 2 8.19249V16.4874C2 20.1046 4.17 22.2551 7.81 22.2551H16.18C19.82 22.2551 21.99 20.1046 21.99 16.4973V8.19249C22 4.58516 19.83 2.43463 16.19 2.43463ZM17 17.5478H7C6.59 17.5478 6.25 17.2108 6.25 16.8045C6.25 16.3982 6.59 16.0612 7 16.0612H17C17.41 16.0612 17.75 16.3982 17.75 16.8045C17.75 17.2108 17.41 17.5478 17 17.5478ZM17 13.0882H7C6.59 13.0882 6.25 12.7512 6.25 12.3449C6.25 11.9386 6.59 11.6016 7 11.6016H17C17.41 11.6016 17.75 11.9386 17.75 12.3449C17.75 12.7512 17.41 13.0882 17 13.0882ZM17 8.62854H7C6.59 8.62854 6.25 8.29159 6.25 7.88527C6.25 7.47895 6.59 7.142 7 7.142H17C17.41 7.142 17.75 7.47895 17.75 7.88527C17.75 8.29159 17.41 8.62854 17 8.62854Z" fill="#26C2E4"/>
</svg>
