<svg width="35" height="34" viewBox="0 0 35 34" fill="none"
    xmlns="http://www.w3.org/2000/svg">
    <path d="M23.6104 2.83325H11.3895C6.08121 2.83325 2.91663 5.90742 2.91663 11.0641V22.9216C2.91663 28.0924 6.08121 31.1666 11.3895 31.1666H23.5958C28.9041 31.1666 32.0687 28.0924 32.0687 22.9358V11.0641C32.0833 5.90742 28.9187 2.83325 23.6104 2.83325ZM12.3958 9.03825C13.8979 9.03825 15.1375 10.2283 15.1375 11.7016C15.1375 13.1749 13.9125 14.3649 12.3958 14.3649C10.8791 14.3649 9.65413 13.1466 9.65413 11.6874C9.65413 10.2283 10.8937 9.03825 12.3958 9.03825ZM17.5 27.0299C13.577 27.0299 10.3833 23.9274 10.3833 20.1166C10.3833 19.1249 11.2145 18.3033 12.2354 18.3033H22.7354C23.7562 18.3033 24.5875 19.1108 24.5875 20.1166C24.6166 23.9274 21.4229 27.0299 17.5 27.0299ZM22.6041 14.3366C21.102 14.3366 19.8625 13.1466 19.8625 11.6733C19.8625 10.1999 21.0875 9.00992 22.6041 9.00992C24.1208 9.00992 25.3458 10.1999 25.3458 11.6733C25.3458 13.1466 24.1062 14.3366 22.6041 14.3366Z" fill="#26C2E4"/>
</svg>
