<svg width="24" height="24" viewBox="0 0 24 24" fill="none" xmlns="http://www.w3.org/2000/svg">
<path d="M18.54 4.17001L13.04 2.11001C12.47 1.90001 11.54 1.90001 10.97 2.11001L5.46999 4.17001C4.40999 4.57001 3.54999 5.81001 3.54999 6.94001V15.04C3.54999 15.85 4.07999 16.92 4.72999 17.4L10.23 21.51C11.2 22.24 12.79 22.24 13.76 21.51L19.26 17.4C19.91 16.91 20.44 15.85 20.44 15.04V6.94001C20.45 5.81001 19.59 4.57001 18.54 4.17001ZM12.75 12.87V15.5C12.75 15.91 12.41 16.25 12 16.25C11.59 16.25 11.25 15.91 11.25 15.5V12.87C10.24 12.55 9.49999 11.61 9.49999 10.5C9.49999 9.12001 10.62 8.00001 12 8.00001C13.38 8.00001 14.5 9.12001 14.5 10.5C14.5 11.62 13.76 12.55 12.75 12.87Z" fill="#26C2E4"/>
</svg>
