<svg width="18" height="18" viewBox="0 0 18 18" fill="none" xmlns="http://www.w3.org/2000/svg">
<path d="M9 13.875C11.6924 13.875 13.875 11.6924 13.875 9C13.875 6.30761 11.6924 4.125 9 4.125C6.30761 4.125 4.125 6.30761 4.125 9C4.125 11.6924 6.30761 13.875 9 13.875Z" stroke="#26C2E4" stroke-width="1.5" stroke-linecap="round" stroke-linejoin="round"/>
<path d="M14.355 14.355L14.2575 14.2575M14.2575 3.7425L14.355 3.645L14.2575 3.7425ZM3.645 14.355L3.7425 14.2575L3.645 14.355ZM9 1.56V1.5V1.56ZM9 16.5V16.44V16.5ZM1.56 9H1.5H1.56ZM16.5 9H16.44H16.5ZM3.7425 3.7425L3.645 3.645L3.7425 3.7425Z" stroke="#26C2E4" stroke-width="2" stroke-linecap="round" stroke-linejoin="round"/>
</svg>
