<svg width="25" height="25" viewBox="0 0 25 25" fill="none" xmlns="http://www.w3.org/2000/svg">
<path d="M12.4999 2.08334C6.74992 2.08334 2.08325 6.75001 2.08325 12.5C2.08325 18.25 6.74992 22.9167 12.4999 22.9167C18.2499 22.9167 22.9166 18.25 22.9166 12.5C22.9166 6.75001 18.2499 2.08334 12.4999 2.08334ZM12.8437 17.7083C12.6562 17.7708 12.3333 17.7708 12.1458 17.7083C10.5208 17.1563 6.87492 14.8333 6.87492 10.8958C6.87492 9.15626 8.27075 7.75001 9.99992 7.75001C11.0208 7.75001 11.927 8.23959 12.4999 9.01043C13.0624 8.25001 13.9791 7.75001 14.9999 7.75001C16.7291 7.75001 18.1249 9.15626 18.1249 10.8958C18.1249 14.8333 14.4791 17.1563 12.8437 17.7083Z" stroke="#292D32"/>
</svg>