<svg width="25" height="25" viewBox="0 0 25 25" fill="none" xmlns="http://www.w3.org/2000/svg">
<path d="M22.9166 12.5C22.9166 6.76043 18.2395 2.08334 12.4999 2.08334C6.76033 2.08334 2.08325 6.76043 2.08325 12.5C2.08325 15.5208 3.38534 18.2396 5.44784 20.1458C5.44784 20.1563 5.44783 20.1563 5.43742 20.1667C5.54158 20.2708 5.66659 20.3542 5.77075 20.4479C5.83325 20.5 5.88534 20.5521 5.94784 20.5938C6.13534 20.75 6.34367 20.8958 6.54159 21.0417C6.6145 21.0938 6.677 21.1354 6.74992 21.1875C6.94784 21.3229 7.15617 21.4479 7.37492 21.5625C7.44784 21.6042 7.53117 21.6563 7.60409 21.6979C7.81242 21.8125 8.03117 21.9167 8.26033 22.0104C8.34367 22.0521 8.427 22.0938 8.51034 22.125C8.7395 22.2188 8.96867 22.3021 9.19783 22.375C9.28117 22.4063 9.3645 22.4375 9.44783 22.4583C9.69783 22.5313 9.94783 22.5938 10.1978 22.6563C10.2708 22.6771 10.3437 22.6979 10.427 22.7083C10.7187 22.7708 11.0103 22.8125 11.3124 22.8438C11.3541 22.8438 11.3958 22.8542 11.4374 22.8646C11.7916 22.8958 12.1458 22.9167 12.4999 22.9167C12.8541 22.9167 13.2083 22.8958 13.552 22.8646C13.5937 22.8646 13.6353 22.8542 13.677 22.8438C13.9791 22.8125 14.2708 22.7708 14.5624 22.7083C14.6353 22.6979 14.7083 22.6667 14.7916 22.6563C15.0416 22.5938 15.302 22.5417 15.5416 22.4583C15.6249 22.4271 15.7083 22.3958 15.7916 22.375C16.0208 22.2917 16.2603 22.2188 16.4791 22.125C16.5624 22.0938 16.6458 22.0521 16.7291 22.0104C16.9478 21.9167 17.1666 21.8125 17.3853 21.6979C17.4687 21.6563 17.5416 21.6042 17.6145 21.5625C17.8228 21.4375 18.0312 21.3229 18.2395 21.1875C18.3124 21.1458 18.3749 21.0938 18.4478 21.0417C18.6562 20.8958 18.8541 20.75 19.0416 20.5938C19.1041 20.5417 19.1562 20.4896 19.2187 20.4479C19.3333 20.3542 19.4478 20.2604 19.552 20.1667C19.552 20.1563 19.552 20.1563 19.5416 20.1458C21.6145 18.2396 22.9166 15.5208 22.9166 12.5ZM17.6458 17.6771C14.8228 15.7813 10.1978 15.7813 7.35409 17.6771C6.89575 17.9792 6.52075 18.3333 6.20825 18.7188C4.62492 17.1146 3.64575 14.9167 3.64575 12.5C3.64575 7.61459 7.6145 3.64584 12.4999 3.64584C17.3853 3.64584 21.3541 7.61459 21.3541 12.5C21.3541 14.9167 20.3749 17.1146 18.7916 18.7188C18.4895 18.3333 18.1041 17.9792 17.6458 17.6771Z" stroke= '#292D32'/>
<path d="M12.5 7.21875C10.3438 7.21875 8.59375 8.96875 8.59375 11.125C8.59375 13.2396 10.25 14.9583 12.4479 15.0208C12.4792 15.0208 12.5208 15.0208 12.5417 15.0208C12.5625 15.0208 12.5937 15.0208 12.6146 15.0208C12.625 15.0208 12.6354 15.0208 12.6354 15.0208C14.7396 14.9479 16.3958 13.2396 16.4062 11.125C16.4062 8.96875 14.6562 7.21875 12.5 7.21875Z" stroke= '#292D32'/>
</svg>