<svg width="25" height="25" viewBox="0 0 25 25" fill="none" xmlns="http://www.w3.org/2000/svg">
<path d="M17.7085 2.08334H7.29183C4.41683 2.08334 2.0835 4.40626 2.0835 7.27084V13.5V14.5417C2.0835 17.4063 4.41683 19.7292 7.29183 19.7292H8.85433C9.13558 19.7292 9.51058 19.9167 9.68766 20.1458L11.2502 22.2188C11.9377 23.1354 13.0627 23.1354 13.7502 22.2188L15.3127 20.1458C15.5106 19.8854 15.8231 19.7292 16.146 19.7292H17.7085C20.5835 19.7292 22.9168 17.4063 22.9168 14.5417V7.27084C22.9168 4.40626 20.5835 2.08334 17.7085 2.08334ZM13.5418 14.3229H7.29183C6.86475 14.3229 6.51058 13.9688 6.51058 13.5417C6.51058 13.1146 6.86475 12.7604 7.29183 12.7604H13.5418C13.9689 12.7604 14.3231 13.1146 14.3231 13.5417C14.3231 13.9688 13.9689 14.3229 13.5418 14.3229ZM17.7085 9.11459H7.29183C6.86475 9.11459 6.51058 8.76043 6.51058 8.33334C6.51058 7.90626 6.86475 7.55209 7.29183 7.55209H17.7085C18.1356 7.55209 18.4897 7.90626 18.4897 8.33334C18.4897 8.76043 18.1356 9.11459 17.7085 9.11459Z" stroke= '#292D32'/>
</svg>