<svg width="58" height="60" viewBox="0 0 58 60" fill="none" xmlns="http://www.w3.org/2000/svg">
<path d="M4.8335 31.2874H45.9168" stroke="#26C2E4" stroke-width="1.5" stroke-miterlimit="10" stroke-linecap="round" stroke-linejoin="round"/>
<path d="M45.9168 25.5063V43.2466C45.8443 50.3179 43.9593 52.1044 36.7818 52.1044H13.9686C6.67023 52.1044 4.8335 50.2435 4.8335 42.8496V25.5063C4.8335 18.8072 6.356 16.6486 12.0835 16.3012C12.6635 16.2764 13.2919 16.2516 13.9686 16.2516H36.7818C44.0801 16.2516 45.9168 18.1125 45.9168 25.5063Z" stroke="#26C2E4" stroke-width="1.5" stroke-linecap="round" stroke-linejoin="round"/>
<path d="M53.1668 16.6982V34.0415C53.1668 40.7407 51.6443 42.8993 45.9168 43.2466V25.5063C45.9168 18.1125 44.0801 16.2516 36.7818 16.2516H13.9686C13.2919 16.2516 12.6635 16.2764 12.0835 16.3012C12.156 9.22992 14.0411 7.44348 21.2186 7.44348H44.0318C51.3301 7.44348 53.1668 9.30435 53.1668 16.6982Z" stroke="#26C2E4" stroke-width="1.5" stroke-linecap="round" stroke-linejoin="round"/>
<path d="M12.6875 44.1895H16.8441" stroke="#26C2E4" stroke-width="1.5" stroke-miterlimit="10" stroke-linecap="round" stroke-linejoin="round"/>
<path d="M22.0156 44.1895H30.329" stroke="#26C2E4" stroke-width="1.5" stroke-miterlimit="10" stroke-linecap="round" stroke-linejoin="round"/>
</svg>
