<svg width="58" height="62" viewBox="0 0 58 62" fill="none" xmlns="http://www.w3.org/2000/svg">
<g filter="url(#filter0_d_875_1620)">
<path d="M4.8335 53.1666H53.1668" stroke="#26C2E4" stroke-width="1.5" stroke-miterlimit="10" stroke-linecap="round" stroke-linejoin="round"/>
<path d="M7.12939 53.1667L7.25024 24.0942C7.25024 22.62 7.95106 21.2185 9.11106 20.3001L26.0277 7.12926C27.7677 5.77592 30.2086 5.77592 31.9727 7.12926L48.8894 20.2759C50.0736 21.1943 50.7502 22.5958 50.7502 24.0942V53.1667" stroke="#26C2E4" stroke-width="1.5" stroke-miterlimit="10" stroke-linejoin="round"/>
<path d="M37.4582 26.5834H20.5415C18.5357 26.5834 16.9165 28.2025 16.9165 30.2084V53.1667H41.0832V30.2084C41.0832 28.2025 39.464 26.5834 37.4582 26.5834Z" stroke="#26C2E4" stroke-width="1.5" stroke-miterlimit="10" stroke-linecap="round" stroke-linejoin="round"/>
<path d="M24.1665 39.2709V42.8959" stroke="#26C2E4" stroke-width="1.5" stroke-miterlimit="10" stroke-linecap="round" stroke-linejoin="round"/>
<path d="M25.375 18.125H32.625" stroke="#26C2E4" stroke-width="1.5" stroke-miterlimit="10" stroke-linecap="round" stroke-linejoin="round"/>
</g>
<defs>
<filter id="filter0_d_875_1620" x="-4" y="0" width="66" height="66" filterUnits="userSpaceOnUse" color-interpolation-filters="sRGB">
<feFlood flood-opacity="0" result="BackgroundImageFix"/>
<feColorMatrix in="SourceAlpha" type="matrix" values="0 0 0 0 0 0 0 0 0 0 0 0 0 0 0 0 0 0 127 0" result="hardAlpha"/>
<feOffset dy="4"/>
<feGaussianBlur stdDeviation="2"/>
<feComposite in2="hardAlpha" operator="out"/>
<feColorMatrix type="matrix" values="0 0 0 0 0 0 0 0 0 0 0 0 0 0 0 0 0 0 0.25 0"/>
<feBlend mode="normal" in2="BackgroundImageFix" result="effect1_dropShadow_875_1620"/>
<feBlend mode="normal" in="SourceGraphic" in2="effect1_dropShadow_875_1620" result="shape"/>
</filter>
</defs>
</svg>
