<svg width="24" height="24" viewBox="0 0 24 24" fill="none" xmlns="http://www.w3.org/2000/svg">
<path d="M19 7C19 7.18 18.99 7.34999 18.97 7.51999C18.85 8.96999 18.21 10.28 17.24 11.24C16.16 12.33 14.66 13 13 13H9.86999C9.36999 13 8.95 13.37 8.88 13.86L8.11999 19.14C8.05999 19.53 7.78 19.85 7.41 19.95C7.32 19.99 7.23 20 7.13 20H5.17999C4.55999 20 4.09 19.45 4.19 18.84L6.57998 4.51001C6.81998 3.06001 8.07001 2 9.54001 2H14C16.76 2 19 4.24 19 7Z" fill="#26C2E4"/>
<path d="M21 11C21 12.38 20.44 13.63 19.54 14.54C18.63 15.44 17.38 16 16 16H13.85C13.36 16 12.94 16.35 12.86 16.84L12.14 21.16C12.06 21.65 11.64 22 11.15 22H8.22001C8.04001 22 7.88 21.96 7.74 21.88C7.52 21.76 7.66001 21.47 7.90001 21.37C8.80001 21.08 9.46002 20.31 9.60002 19.35L10.24 14.93C10.28 14.68 10.49 14.5 10.73 14.5H13C15.01 14.5 16.9 13.72 18.3 12.31C19.13 11.49 19.75 10.48 20.11 9.39004C20.19 9.14004 20.52 9.09003 20.63 9.32003C20.87 9.84003 21 10.4 21 11Z" fill="#26C2E4"/>
</svg>
