<svg width="20" height="20" viewBox="0 0 20 20" fill="none" xmlns="http://www.w3.org/2000/svg">
<path d="M16.6667 1.66666H3.33341C2.41675 1.66666 1.66675 2.41666 1.66675 3.33333V16.6667C1.66675 17.5833 2.41675 18.3333 3.33341 18.3333H16.6667C17.5834 18.3333 18.3334 17.5833 18.3334 16.6667V3.33333C18.3334 2.41666 17.5834 1.66666 16.6667 1.66666ZM7.50008 15C7.04175 15 6.66675 14.625 6.66675 14.1667C6.66675 13.7083 7.04175 13.3333 7.50008 13.3333C7.95841 13.3333 8.33341 13.7083 8.33341 14.1667C8.33341 14.625 7.95841 15 7.50008 15ZM7.50008 12.5C7.04175 12.5 6.66675 12.125 6.66675 11.6667C6.66675 11.2083 7.04175 10.8333 7.50008 10.8333C7.95841 10.8333 8.33341 11.2083 8.33341 11.6667C8.33341 12.125 7.95841 12.5 7.50008 12.5ZM10.0001 15C9.54175 15 9.16675 14.625 9.16675 14.1667C9.16675 13.7083 9.54175 13.3333 10.0001 13.3333C10.4584 13.3333 10.8334 13.7083 10.8334 14.1667C10.8334 14.625 10.4584 15 10.0001 15ZM10.0001 12.5C9.54175 12.5 9.16675 12.125 9.16675 11.6667C9.16675 11.2083 9.54175 10.8333 10.0001 10.8333C10.4584 10.8333 10.8334 11.2083 10.8334 11.6667C10.8334 12.125 10.4584 12.5 10.0001 12.5ZM12.5001 15C12.0417 15 11.6667 14.625 11.6667 14.1667C11.6667 13.7083 12.0417 13.3333 12.5001 13.3333C12.9584 13.3333 13.3334 13.7083 13.3334 14.1667C13.3334 14.625 12.9584 15 12.5001 15ZM12.5001 12.5C12.0417 12.5 11.6667 12.125 11.6667 11.6667C11.6667 11.2083 12.0417 10.8333 12.5001 10.8333C12.9584 10.8333 13.3334 11.2083 13.3334 11.6667C13.3334 12.125 12.9584 12.5 12.5001 12.5ZM14.1667 10H5.83341V9.16666C5.83341 6.86666 7.70008 5 10.0001 5C12.3001 5 14.1667 6.86666 14.1667 9.16666V10Z" fill="white"/>
</svg>
