<svg width="20" height="14" viewBox="0 0 20 14" fill="none" xmlns="http://www.w3.org/2000/svg">
<path d="M1 13.4105C0.716667 13.4105 0.479333 13.3186 0.288 13.1347C0.0960001 12.9514 0 12.724 0 12.4526V7.66316C0 7.2321 0.0916668 6.84096 0.275 6.48974C0.458333 6.13851 0.7 5.82719 1 5.55579V2.87368C1 2.07544 1.29167 1.39693 1.875 0.838158C2.45833 0.279386 3.16667 0 4 0H8C8.38333 0 8.74167 0.0680103 9.075 0.204031C9.40833 0.339414 9.71667 0.526842 10 0.766316C10.2833 0.526842 10.5917 0.339414 10.925 0.204031C11.2583 0.0680103 11.6167 0 12 0H16C16.8333 0 17.5417 0.279386 18.125 0.838158C18.7083 1.39693 19 2.07544 19 2.87368V5.55579C19.3 5.82719 19.5417 6.13851 19.725 6.48974C19.9083 6.84096 20 7.2321 20 7.66316V12.4526C20 12.724 19.904 12.9514 19.712 13.1347C19.5207 13.3186 19.2833 13.4105 19 13.4105C18.7167 13.4105 18.4793 13.3186 18.288 13.1347C18.096 12.9514 18 12.724 18 12.4526V11.4947H2V12.4526C2 12.724 1.90433 12.9514 1.713 13.1347C1.521 13.3186 1.28333 13.4105 1 13.4105ZM11 4.78947H17V2.87368C17 2.60228 16.904 2.37462 16.712 2.19071C16.5207 2.00743 16.2833 1.91579 16 1.91579H12C11.7167 1.91579 11.4793 2.00743 11.288 2.19071C11.096 2.37462 11 2.60228 11 2.87368V4.78947ZM3 4.78947H9V2.87368C9 2.60228 8.90433 2.37462 8.713 2.19071C8.521 2.00743 8.28333 1.91579 8 1.91579H4C3.71667 1.91579 3.479 2.00743 3.287 2.19071C3.09567 2.37462 3 2.60228 3 2.87368V4.78947Z" fill="white"/>
</svg>
