<svg width="64" height="64" viewBox="0 0 64 64" fill="none"
    xmlns="http://www.w3.org/2000/svg">
    <path d="M45.9731 60.6666H18.0265C10.5598 60.6666 5.81314 56.2133 5.38648 48.7733L3.99981 26.7733C3.78648 23.44 4.93314 20.24 7.22648 17.8133C9.49314 15.3866 12.6931 14 15.9998 14C16.8531 14 17.6798 13.4933 18.0798 12.6933L19.9998 8.87998C21.5731 5.75998 25.5198 3.33331 28.9598 3.33331H35.0665C38.5065 3.33331 42.4265 5.75998 43.9998 8.85331L45.9198 12.7466C46.3198 13.4933 47.1198 14 47.9998 14C51.3065 14 54.5065 15.3866 56.7731 17.8133C59.0665 20.2666 60.2131 23.44 59.9998 26.7733L58.6131 48.8C58.1331 56.3466 53.5198 60.6666 45.9731 60.6666ZM28.9598 7.33331C26.9865 7.33331 24.4798 8.87998 23.5731 10.6666L21.6531 14.5066C20.5331 16.6666 18.3731 18 15.9998 18C13.7598 18 11.6798 18.9066 10.1331 20.5333C8.61314 22.16 7.83981 24.2933 7.99981 26.5066L9.38648 48.5333C9.70648 53.92 12.6131 56.6666 18.0265 56.6666H45.9731C51.3598 56.6666 54.2665 53.92 54.6131 48.5333L55.9998 26.5066C56.1331 24.2933 55.3865 22.16 53.8665 20.5333C52.3198 18.9066 50.2398 18 47.9998 18C45.6265 18 43.4665 16.6666 42.3465 14.56L40.3998 10.6666C39.5198 8.90665 37.0131 7.35998 35.0398 7.35998H28.9598V7.33331Z" fill="#171717" fill-opacity="0.27"/>
    <path d="M36 23.3333H28C26.9067 23.3333 26 22.4266 26 21.3333C26 20.24 26.9067 19.3333 28 19.3333H36C37.0933 19.3333 38 20.24 38 21.3333C38 22.4266 37.0933 23.3333 36 23.3333Z" fill="#171717" fill-opacity="0.27"/>
    <path d="M32.0002 50C26.1068 50 21.3335 45.2267 21.3335 39.3334C21.3335 33.44 26.1068 28.6667 32.0002 28.6667C37.8935 28.6667 42.6668 33.44 42.6668 39.3334C42.6668 45.2267 37.8935 50 32.0002 50ZM32.0002 32.6667C28.3202 32.6667 25.3335 35.6534 25.3335 39.3334C25.3335 43.0134 28.3202 46 32.0002 46C35.6802 46 38.6668 43.0134 38.6668 39.3334C38.6668 35.6534 35.6802 32.6667 32.0002 32.6667Z" fill="#171717" fill-opacity="0.27"/>
</svg>
