<svg width="50" height="50" viewBox="0 0 50 50" fill="none" xmlns="http://www.w3.org/2000/svg">
<path d="M38.9376 24.0208C37.7501 23.7083 36.3542 23.5417 34.6876 23.5417C32.3751 23.5417 31.5209 24.1042 30.3334 25C30.2709 25.0417 30.2084 25.1042 30.1459 25.1667L28.1667 27.2708C26.5209 29.0417 23.5001 29.0417 21.8334 27.2708L19.8542 25.1875C19.7917 25.1042 19.7292 25.0417 19.6667 25C18.4584 24.1042 17.6042 23.5417 15.3126 23.5417C13.6459 23.5417 12.2501 23.6875 11.0626 24.0208C6.10425 25.3542 6.10425 29.2917 6.10425 32.75V34.6875C6.10425 39.9167 6.10425 45.8333 17.2501 45.8333H32.7501C40.1459 45.8333 43.8959 42.0833 43.8959 34.6875V32.75C43.8959 29.2917 43.8959 25.3542 38.9376 24.0208Z" fill="#26C2E4"/>
<path d="M30.8126 4.16666H19.1876C9.97925 4.16666 9.97925 9.06249 9.97925 13.375V25.4375C9.97925 25.8958 10.1876 26.3125 10.5417 26.5833C10.8959 26.8542 11.3751 26.9583 11.8126 26.8333C12.7501 26.5833 13.9167 26.4583 15.3126 26.4583C16.7084 26.4583 17.0001 26.625 17.8334 27.25L19.7292 29.25C21.0834 30.7083 23.0209 31.5417 25.0209 31.5417C27.0209 31.5417 28.9376 30.7083 30.3126 29.25L32.2084 27.25C33.0417 26.625 33.3334 26.4583 34.7292 26.4583C36.1251 26.4583 37.2917 26.5833 38.2292 26.8333C38.6667 26.9583 39.1251 26.8542 39.5001 26.5833C39.8542 26.3125 40.0626 25.875 40.0626 25.4375V13.375C40.0209 9.06249 40.0209 4.16666 30.8126 4.16666Z" fill="white"/>
<path d="M28.2292 20.6458H21.7708C20.9583 20.6458 20.3125 20 20.3125 19.1875C20.3125 18.375 20.9583 17.7292 21.7708 17.7292H28.2292C29.0417 17.7292 29.6875 18.375 29.6875 19.1875C29.6875 19.9792 29.0208 20.6458 28.2292 20.6458Z" fill="#26C2E4"/>
<path d="M29.8542 14.8333H20.1458C19.3333 14.8333 18.6875 14.1875 18.6875 13.375C18.6875 12.5625 19.3333 11.9167 20.1458 11.9167H29.8333C30.6458 11.9167 31.2917 12.5625 31.2917 13.375C31.2917 14.1667 30.6458 14.8333 29.8542 14.8333Z" fill="#26C2E4"/>
</svg>