<svg width="40" height="40" viewBox="0 0 40 40" fill="none" xmlns="http://www.w3.org/2000/svg">
<path d="M16.6666 25.8334C15.9833 25.8334 15.4166 26.4 15.4166 27.0834V29.5834C15.4166 30.2667 15.9833 30.8334 16.6666 30.8334C17.35 30.8334 17.9166 30.2667 17.9166 29.5834V27.0834C17.9166 26.4 17.35 25.8334 16.6666 25.8334Z" fill="white"/>
<path d="M36.6667 35.4167H35V16.6333C35 15.6 34.5334 14.6333 33.7167 14L22.05 4.93333C20.85 3.98333 19.15 3.98333 17.95 4.93333L6.28337 14C5.46671 14.6333 5.00004 15.6 5.00004 16.6167L4.91671 35.4167H3.33337C2.65004 35.4167 2.08337 35.9667 2.08337 36.6667C2.08337 37.35 2.65004 37.9167 3.33337 37.9167H36.6667C37.35 37.9167 37.9167 37.35 37.9167 36.6667C37.9167 35.9667 37.35 35.4167 36.6667 35.4167ZM17.5 11.25H22.5C23.1834 11.25 23.75 11.8167 23.75 12.5C23.75 13.1833 23.1834 13.75 22.5 13.75H17.5C16.8167 13.75 16.25 13.1833 16.25 12.5C16.25 11.8167 16.8167 11.25 17.5 11.25ZM28.3334 35.4167H11.6667V20.8333C11.6667 19.45 12.7834 18.3333 14.1667 18.3333H25.8334C27.2167 18.3333 28.3334 19.45 28.3334 20.8333V35.4167Z" fill="white"/>
</svg>