<svg width="22" height="23" viewBox="0 0 22 23" fill="none" xmlns="http://www.w3.org/2000/svg">
<path d="M20.1667 6.22913H14.6667" stroke="#292D32" stroke-width="1.5" stroke-miterlimit="10" stroke-linecap="round" stroke-linejoin="round"/>
<path d="M5.49992 6.22913H1.83325" stroke="#292D32" stroke-width="1.5" stroke-miterlimit="10" stroke-linecap="round" stroke-linejoin="round"/>
<path d="M9.16659 9.58333C10.9385 9.58333 12.3749 8.08162 12.3749 6.22917C12.3749 4.37671 10.9385 2.875 9.16659 2.875C7.39467 2.875 5.95825 4.37671 5.95825 6.22917C5.95825 8.08162 7.39467 9.58333 9.16659 9.58333Z" stroke="#292D32" stroke-width="1.5" stroke-miterlimit="10" stroke-linecap="round" stroke-linejoin="round"/>
<path d="M20.1667 16.7709H16.5" stroke="#292D32" stroke-width="1.5" stroke-miterlimit="10" stroke-linecap="round" stroke-linejoin="round"/>
<path d="M7.33325 16.7709H1.83325" stroke="#292D32" stroke-width="1.5" stroke-miterlimit="10" stroke-linecap="round" stroke-linejoin="round"/>
<path d="M12.8333 20.125C14.6052 20.125 16.0417 18.6232 16.0417 16.7708C16.0417 14.9183 14.6052 13.4166 12.8333 13.4166C11.0614 13.4166 9.625 14.9183 9.625 16.7708C9.625 18.6232 11.0614 20.125 12.8333 20.125Z" stroke="#292D32" stroke-width="1.5" stroke-miterlimit="10" stroke-linecap="round" stroke-linejoin="round"/>
</svg>