<svg width="69" height="71" viewBox="0 0 69 71" fill="none" xmlns="http://www.w3.org/2000/svg">
<path d="M31.51 6.09414L15.6975 12.1883C12.6788 13.3716 10.2063 17.04 10.2063 20.3829V44.3454C10.2063 46.7416 11.73 49.9071 13.5988 51.3271L29.4113 63.4858C32.2 65.6454 36.7713 65.6454 39.56 63.4858L55.3725 51.3271C57.2413 49.8775 58.7651 46.7416 58.7651 44.3454V20.3829C58.7651 17.0696 56.2925 13.3716 53.2738 12.2179L37.4613 6.12372C35.8513 5.47289 33.1488 5.47289 31.51 6.09414Z" fill="#26C2E4"/>
<path d="M30.6474 42.0971C30.1012 42.0971 29.5549 41.89 29.1237 41.4463L24.4949 36.6834C23.6612 35.8254 23.6612 34.4054 24.4949 33.5475C25.3287 32.6896 26.7087 32.6896 27.5424 33.5475L30.6474 36.7425L41.4862 25.5896C42.3199 24.7317 43.6999 24.7317 44.5337 25.5896C45.3674 26.4475 45.3674 27.8675 44.5337 28.7254L32.1712 41.4463C31.7399 41.89 31.1937 42.0971 30.6474 42.0971Z" fill="white"/>
</svg>
