<svg width="50" height="50" viewBox="0 0 50 50" fill="none" xmlns="http://www.w3.org/2000/svg">
<path d="M25.0001 36.1459C26.8755 36.1459 28.3959 34.6255 28.3959 32.75C28.3959 30.8746 26.8755 29.3542 25.0001 29.3542C23.1246 29.3542 21.6042 30.8746 21.6042 32.75C21.6042 34.6255 23.1246 36.1459 25.0001 36.1459Z" fill="#727272"/>
<path d="M34.6876 19.6667H15.3126C6.77091 19.6667 4.16675 22.2709 4.16675 30.8125V34.6875C4.16675 43.2292 6.77091 45.8334 15.3126 45.8334H34.6876C43.2292 45.8334 45.8334 43.2292 45.8334 34.6875V30.8125C45.8334 22.2709 43.2292 19.6667 34.6876 19.6667ZM25.0001 39.0417C21.5209 39.0417 18.7084 36.2084 18.7084 32.75C18.7084 29.2917 21.5209 26.4584 25.0001 26.4584C28.4792 26.4584 31.2917 29.2917 31.2917 32.75C31.2917 36.2084 28.4792 39.0417 25.0001 39.0417Z" fill="#26C2E4"/>
<path d="M14.8334 19.6875V17.25C14.8334 11.1459 16.5626 7.08335 25.0001 7.08335C34.0209 7.08335 35.1667 11.4792 35.1667 15.3125C35.1667 16.125 35.8126 16.7709 36.6251 16.7709C37.4376 16.7709 38.0834 16.125 38.0834 15.3125C38.0834 7.91669 33.6876 4.16669 25.0001 4.16669C13.2709 4.16669 11.9167 11.625 11.9167 17.25V19.8542C12.7917 19.75 13.7709 19.6875 14.8334 19.6875Z" fill="#727272"/>
</svg>
